<svg viewBox="0 0 800 282">
  <rect fill="#CCB271" x="0" y="207" width="800" height="75"></rect>
  <polygon fill="#231F20" points="154.9354 256.641 229.8374 256.641 191.0794 83.7"></polygon>
  <polygon fill="#EA6929" points="240.7531 256.641 311.5371 256.641 264.2831 120.301"></polygon>
  <polygon fill="#FCF0C0" points="58 256.641 139.317 256.641 139.317 143.177"></polygon>
  <path d="M165.0587,111.1577 C165.0587,128.8417 150.7237,143.1767 133.0397,143.1767 C115.3557,143.1767 101.0197,128.8417 101.0197,111.1577 C101.0197,93.4737 115.3557,79.1377 133.0397,79.1377 C150.7237,79.1377 165.0587,93.4737 165.0587,111.1577" id="circle-red" fill="#E24301"></path>
  <path d="M245.4386,43.1377 C245.4386,66.9617 226.1256,86.2747 202.3016,86.2747 C178.4776,86.2747 159.1646,66.9617 159.1646,43.1377 C159.1646,19.3137 178.4776,0.0007 202.3016,0.0007 C226.1256,0.0007 245.4386,19.3137 245.4386,43.1377" id="circle-cream" fill="#FCF0C0"></path>
  <path d="M286.6153,99.5952 C286.6153,111.6872 276.8123,121.4912 264.7193,121.4912 C252.6273,121.4912 242.8243,111.6872 242.8243,99.5952 C242.8243,87.5032 252.6273,77.6992 264.7193,77.6992 C276.8123,77.6992 286.6153,87.5032 286.6153,99.5952" id="circle-olive" fill="#CCB271"></path>
</svg>
